<svg xmlns="http://www.w3.org/2000/svg" version="1.1" xmlns:xlink="http://www.w3.org/1999/xlink" x="0" y="0" viewBox="0 0 48 48" style="enable-background:new 0 0 512 512" xml:space="preserve"><g><path d="M40 9c-5.787-.011-8.167 7.508-3.536 10.836l-3.713 7.426c-1.478-.474-3.265-.287-4.593.456l-6.742-8.669A5.974 5.974 0 0 0 23 15c0-3.309-2.691-6-6-6-5.777-.014-8.172 7.507-3.536 10.836l-3.713 7.426C5.999 26.049 1.931 29.042 2 33c.255 7.928 11.746 7.93 12 0a5.988 5.988 0 0 0-2.464-4.836l3.713-7.426c1.478.474 3.265.287 4.593-.456l6.742 8.669A5.974 5.974 0 0 0 25 33c.277 7.935 11.719 7.944 12 0a5.988 5.988 0 0 0-2.464-4.836l3.713-7.426C42 21.951 46.069 18.958 46 15c0-3.309-2.691-6-6-6zM8 37c-5.286-.168-5.285-7.833 0-8 5.286.168 5.285 7.833 0 8zm5-22c.168-5.286 7.833-5.285 8 0-.168 5.286-7.833 5.285-8 0zm18 22c-5.286-.168-5.285-7.833 0-8 5.286.168 5.285 7.833 0 8zm9-18c-5.286-.168-5.285-7.833 0-8 5.286.168 5.285 7.833 0 8z" fill="currentColor" opacity="1" data-original="#000000"></path></g></svg>